<svg version="1.1" id="Grampus" xmlns="http://www.w3.org/2000/svg" xmlns:xlink="http://www.w3.org/1999/xlink" x="0px" y="0px" viewBox="0 0 155 33" xml:space="preserve">
<g>
	<path class="color" d="M19.4,22.4c-2,2-4.4,3.1-7.1,3.1c-1.7,0-3.3-0.3-4.7-1c-1.5-0.7-2.8-1.6-3.9-2.8c-1.1-1.2-2-2.6-2.6-4.2
		c-0.6-1.6-1-3.3-1-5.2c0-1.8,0.3-3.4,1-5c0.6-1.5,1.5-2.9,2.6-4.1c1.1-1.2,2.4-2.1,3.9-2.8c1.5-0.7,3.2-1,4.9-1
		C15-0.5,17.1,0,18.8,1c1.7,1,3,2.4,3.9,4.1l-3.7,2.7c-0.6-1.3-1.6-2.2-2.7-2.9c-1.2-0.7-2.4-1-3.8-1c-1.1,0-2.1,0.2-3,0.7
		C8.6,5,7.8,5.7,7.2,6.4C6.5,7.2,6,8.1,5.7,9.2c-0.3,1-0.5,2.1-0.5,3.3c0,1.2,0.2,2.3,0.6,3.4c0.4,1,0.9,2,1.6,2.7
		c0.7,0.8,1.5,1.4,2.4,1.8c0.9,0.4,1.9,0.7,3,0.7c2.5,0,4.7-1.2,6.7-3.5v-1.8h-5.1v-3.6h9.3v13.1h-4.1V22.4z" fill="#ffffff"/>
	<path class="color" d="M38.5,10.5c-1.5,0-2.8,0.3-3.9,0.8c-1.2,0.5-2,1.3-2.5,2.4v11.4h-4.8V6.4h4.4v4c0.3-0.6,0.7-1.2,1.2-1.7
		c0.5-0.5,0.9-1,1.5-1.4c0.5-0.4,1.1-0.7,1.6-0.9c0.5-0.2,1.1-0.3,1.6-0.3c0.3,0,0.5,0,0.6,0c0.1,0,0.3,0,0.4,0V10.5z" fill="#ffffff"/>
	<path class="color" d="M46.4,25.6c-0.9,0-1.8-0.2-2.6-0.5s-1.5-0.7-2.1-1.3c-0.6-0.5-1-1.2-1.4-1.9c-0.3-0.7-0.5-1.5-0.5-2.4
		c0-0.9,0.2-1.7,0.6-2.5s0.9-1.4,1.7-1.9c0.7-0.5,1.6-0.9,2.5-1.2c1-0.3,2.1-0.5,3.2-0.5c0.8,0,1.7,0.1,2.5,0.2
		c0.8,0.1,1.5,0.3,2.1,0.6v-1.1c0-1.2-0.4-2.2-1.1-2.9c-0.7-0.7-1.8-1-3.1-1c-1,0-2,0.2-3,0.5c-1,0.4-1.9,0.9-3,1.6L41,8.5
		C43.4,6.9,46,6,48.8,6c2.7,0,4.8,0.7,6.3,2c1.5,1.3,2.3,3.3,2.3,5.8v5.9c0,0.5,0.1,0.9,0.3,1.1c0.2,0.2,0.5,0.3,0.9,0.4v4.1
		c-0.8,0.2-1.5,0.3-2.1,0.3c-0.9,0-1.6-0.2-2.1-0.6c-0.5-0.4-0.8-0.9-0.9-1.6l-0.1-1c-0.8,1.1-1.9,1.9-3.1,2.5
		C49,25.3,47.7,25.6,46.4,25.6z M47.7,22.1c0.8,0,1.6-0.1,2.3-0.4c0.7-0.3,1.3-0.7,1.7-1.2c0.5-0.4,0.8-0.9,0.8-1.4V17
		c-0.6-0.2-1.2-0.4-1.9-0.5s-1.3-0.2-1.9-0.2c-1.2,0-2.3,0.3-3.1,0.8c-0.8,0.6-1.2,1.3-1.2,2.1c0,0.8,0.3,1.5,0.9,2
		C46.1,21.8,46.8,22.1,47.7,22.1z" fill="#ffffff"/>
	<path class="color" d="M91.2,25.2h-4.8V14.7c0-1.5-0.3-2.6-0.8-3.3c-0.5-0.7-1.2-1-2.1-1c-1,0-1.9,0.4-2.7,1.1s-1.4,1.7-1.8,2.9v11h-4.8V14.7
		c0-1.5-0.3-2.6-0.8-3.3c-0.5-0.7-1.2-1-2.1-1c-0.9,0-1.8,0.4-2.7,1.1c-0.9,0.7-1.5,1.7-1.8,2.8v11h-4.8V6.4h4.4v3.5
		c0.7-1.2,1.6-2.2,2.9-2.8c1.2-0.7,2.6-1,4.2-1c1.6,0,2.8,0.4,3.7,1.2c0.9,0.8,1.4,1.7,1.7,2.8c0.8-1.3,1.7-2.3,2.9-3s2.5-1,4-1
		c1.2,0,2.1,0.2,2.8,0.6s1.3,1,1.7,1.7c0.4,0.7,0.7,1.5,0.8,2.4c0.2,0.9,0.2,1.8,0.2,2.7V25.2z" fill="#ffffff"/>
	<path class="color" d="M106.7,25.6c-1.5,0-2.8-0.3-3.9-1c-1.1-0.7-2-1.6-2.6-2.7v11h-4.8V6.4h4.2v3.2c0.7-1.1,1.6-2,2.7-2.6c1.1-0.6,2.4-1,3.8-1
		c1.3,0,2.4,0.3,3.5,0.8c1.1,0.5,2,1.2,2.8,2.1c0.8,0.9,1.4,1.9,1.8,3.1c0.4,1.2,0.7,2.4,0.7,3.8c0,1.4-0.2,2.7-0.6,3.9
		c-0.4,1.2-1,2.2-1.7,3.1c-0.7,0.9-1.6,1.6-2.6,2.1C109,25.3,107.9,25.6,106.7,25.6z M105.1,21.5c0.7,0,1.4-0.2,2-0.5
		c0.6-0.3,1.1-0.7,1.6-1.3c0.4-0.5,0.8-1.1,1-1.8c0.2-0.7,0.4-1.4,0.4-2.2c0-0.8-0.1-1.5-0.4-2.2c-0.3-0.7-0.6-1.3-1.1-1.8
		s-1-0.9-1.7-1.2s-1.3-0.4-2.1-0.4c-0.5,0-0.9,0.1-1.4,0.2c-0.5,0.2-0.9,0.4-1.3,0.7c-0.4,0.3-0.8,0.6-1.1,1
		c-0.3,0.4-0.6,0.8-0.7,1.3v4.4c0.4,1.1,1.1,2,2,2.7S104.1,21.5,105.1,21.5z" fill="#ffffff"/>
	<path class="color" d="M124,25.6c-1.9,0-3.4-0.6-4.4-1.9s-1.5-3.1-1.5-5.5V6.4h4.8v10.8c0,2.9,1,4.4,3.1,4.4c0.9,0,1.8-0.3,2.7-0.8
		c0.9-0.6,1.6-1.4,2.1-2.6V6.4h4.8v13.3c0,0.5,0.1,0.9,0.3,1.1c0.2,0.2,0.5,0.3,0.9,0.4v4.1c-0.5,0.1-0.9,0.2-1.2,0.2
		c-0.3,0-0.6,0-0.9,0c-0.9,0-1.6-0.2-2.1-0.6c-0.5-0.4-0.9-0.9-1-1.6l-0.1-1.5c-0.8,1.3-1.9,2.3-3.2,2.9
		C127,25.3,125.6,25.6,124,25.6z" fill="#ffffff"/>
	<path class="color" d="M147.6,25.6c-1.6,0-3.1-0.3-4.6-0.8c-1.5-0.5-2.8-1.2-3.9-2.2l1.8-3c1.2,0.8,2.3,1.4,3.4,1.9s2.2,0.6,3.3,0.6
		c1,0,1.7-0.2,2.3-0.5c0.6-0.4,0.8-0.9,0.8-1.5s-0.3-1.2-1-1.5c-0.6-0.3-1.7-0.7-3.2-1.1c-1.2-0.3-2.3-0.7-3.1-1
		c-0.9-0.3-1.6-0.7-2.1-1.1c-0.5-0.4-0.9-0.9-1.2-1.4c-0.2-0.5-0.4-1.1-0.4-1.9c0-1,0.2-1.8,0.6-2.6s0.9-1.4,1.6-2
		c0.7-0.5,1.5-1,2.4-1.2c0.9-0.3,1.9-0.4,2.9-0.4c1.4,0,2.7,0.2,4,0.6s2.4,1.1,3.4,2l-1.9,2.9c-1-0.7-1.9-1.2-2.8-1.6
		c-0.9-0.3-1.8-0.5-2.7-0.5c-0.8,0-1.5,0.2-2.1,0.5c-0.6,0.3-0.8,0.9-0.8,1.6c0,0.3,0.1,0.6,0.2,0.8c0.1,0.2,0.3,0.4,0.6,0.6
		s0.7,0.3,1.1,0.5c0.5,0.2,1,0.3,1.7,0.5c1.3,0.3,2.4,0.7,3.3,1c0.9,0.3,1.7,0.7,2.3,1.2s1,0.9,1.3,1.5c0.3,0.6,0.4,1.2,0.4,2
		c0,1.8-0.7,3.3-2.1,4.4C151.8,25.1,150,25.6,147.6,25.6z" fill="#ffffff"/>
</g>
</svg>